<svg xmlns="http://www.w3.org/2000/svg"  viewBox="0 0 32 32" width="32px" height="32px"><path d="M 16 3.9980469 C 13.080861 3.9980469 10.161004 4.3447693 7.2480469 5.0371094 C 6.1507011 5.2968904 5.2962649 6.1524002 5.0371094 7.25 C 3.6528787 13.075289 3.652579 18.92667 5.0371094 24.751953 C 5.2967541 25.848723 6.1512769 26.703246 7.2480469 26.962891 C 13.073961 28.347571 18.926039 28.347571 24.751953 26.962891 C 25.848723 26.703246 26.703246 25.848723 26.962891 24.751953 L 26.962891 24.75 C 28.346971 18.925342 28.346971 13.074658 26.962891 7.25 L 26.962891 7.2480469 C 26.703246 6.1512738 25.848723 5.2967541 24.751953 5.0371094 C 21.838996 4.3447693 18.919139 3.9980469 16 3.9980469 z M 16 5.9960938 C 18.760861 5.9960936 21.522019 6.324762 24.289062 6.9824219 L 24.291016 6.9824219 C 24.63284 7.0631309 24.93687 7.3671602 25.017578 7.7089844 L 25.017578 7.7109375 C 26.332898 13.245024 26.332898 18.754976 25.017578 24.289062 L 25.017578 24.291016 C 24.936868 24.63284 24.63284 24.93687 24.291016 25.017578 L 24.289062 25.017578 C 18.754976 26.332898 13.245024 26.332898 7.7109375 25.017578 L 7.7089844 25.017578 C 7.3671571 24.936827 7.0631304 24.63284 6.9824219 24.291016 L 6.9824219 24.289062 C 5.6671021 18.754977 5.6671021 13.245024 6.9824219 7.7109375 L 6.9824219 7.7089844 C 7.0631304 7.3672031 7.3671602 7.0631304 7.7089844 6.9824219 L 7.7109375 6.9824219 C 10.477984 6.324762 13.239139 5.9960938 16 5.9960938 z M 22.5 8 A 1.5 1.5 0 0 0 22.5 11 A 1.5 1.5 0 0 0 22.5 8 z M 16 10 C 14.083334 10 12.518559 10.754756 11.501953 11.898438 C 10.485347 13.042118 10 14.527778 10 16 C 10 17.472222 10.485347 18.957881 11.501953 20.101562 C 12.518559 21.245244 14.083334 22 16 22 C 19.301865 22 22 19.301863 22 16 C 22 12.698137 19.301865 10 16 10 z M 16 12 C 18.220986 12 20 13.779015 20 16 C 20 18.220985 18.220986 20 16 20 C 14.583334 20 13.648107 19.504756 12.998047 18.773438 C 12.347987 18.042119 12 17.027778 12 16 C 12 14.972222 12.347987 13.957881 12.998047 13.226562 C 13.648107 12.495245 14.583334 12 16 12 z"/></svg>